:SAMPLES-PER-SECOND 30
:FULLY-SPECIFIED
:DEGREES
16
root  73.1536 39.4547 -11.6374 -13.3208 -86.7554 12.7201
RightUpLeg  -2.23579 -7.21134 -4.889
RightLeg  4.8377 13.2826 -0.533583
RightFoot  -2.14608 -0.200143 2.29366
RightToes  -1.16417e-010 0 -3.6325e-017
Spine  -10.2445 2.42069 3.03668
Spine1  13.2013 2.8402 -2.338
HEad  -10.7553 -11.4585 2.46842
LeftShoulder1  -0.447603 4.67996 -31.9166
LeftArm  -0.308006 10.2124 -42.4623
LeftForeArm  26.53 -15.1249 -6.45794
LeftHand  -0.138215 10.7965 -1.62222
RightShoulder  -1.02189 -6.1668 31.7918
RightArm  17.743 -0.162284 46.3022
RightForeArm  17.0425 9.84659 7.89976
RightHand  -0.164749 4.26304 -2.25988
LeftUpLeg  4.48611 7.37623 2.41711
LeftLeg  1.71385 14.9402 0.215872
LeftFoot  -4.02731 0.117333 -1.48396
LeftToes  1.47335e-010 -1.29615e-010 3.08757e-011
17
root  73.1869 39.4535 -11.6441 -12.5472 -86.6668 11.9401
RightUpLeg  -2.23839 -7.19425 -4.86239
RightLeg  4.78165 13.1636 -0.54534
RightFoot  -2.12875 -0.206341 2.37301
RightToes  -1.16417e-010 0 -3.6325e-017
Spine  -10.0746 2.34914 2.91853
Spine1  13.1096 2.76156 -2.28913
HEad  -10.8801 -11.5227 2.46945
LeftShoulder1  -0.43799 4.65582 -31.8801
LeftArm  0.125765 10.2278 -42.452
LeftForeArm  26.248 -15.3463 -6.41775
LeftHand  -0.153781 10.9276 -1.88824
RightShoulder  -1.02983 -6.18197 31.8722
RightArm  17.5039 -0.0351882 46.2949
RightForeArm  17.0718 9.48708 7.96683
RightHand  -0.168841 4.62465 -2.22681
LeftUpLeg  4.33918 7.41317 2.45594
LeftLeg  1.88918 14.8455 0.24189
LeftFoot  -4.04057 0.109662 -1.36471
LeftToes  1.47335e-010 -1.29615e-010 3.08757e-011
18
root  73.2829 39.4532 -11.6603 -11.2656 -86.3585 10.9744
RightUpLeg  -2.72698 -7.13129 -4.79378
RightLeg  4.84864 12.7569 -0.528543
RightFoot  -1.98649 -0.21066 2.42143
RightToes  -1.16417e-010 0 -3.6325e-017
Spine  -9.9046 2.14158 2.6517
Spine1  12.7631 2.51135 -2.09762
HEad  -11.2928 -11.5582 2.4618
LeftShoulder1  -0.449396 4.68332 -31.9605
LeftArm  0.0811228 10.047 -42.4476
LeftForeArm  26.5422 -15.3595 -6.39468
LeftHand  -0.163941 10.7147 -2.19592
RightShoulder  -1.01424 -6.14651 31.7947
RightArm  17.6107 -0.0732401 46.3585
RightForeArm  17.8499 9.75225 7.86341
RightHand  -0.0538693 3.96245 -0.947519
LeftUpLeg  3.55861 7.30344 2.39259
LeftLeg  2.35501 14.6923 0.405435
LeftFoot  -4.03044 0.111545 -1.394
LeftToes  1.47335e-010 -1.29615e-010 3.08757e-011
19
root  73.3399 39.4575 -11.674 -6.25767 -85.4832 6.15355
RightUpLeg  -2.69332 -7.21566 -4.69082
RightLeg  4.50889 11.9044 -0.455128
RightFoot  -1.80552 -0.21228 2.42675
RightToes  -1.16417e-010 0 -3.6325e-017
Spine  -9.88189 1.65335 2.43617
Spine1  12.5718 1.95623 -1.89939
HEad  -11.3996 -11.4948 2.44019
LeftShoulder1  -0.469914 4.73842 -31.9199
LeftArm  -0.149856 9.92088 -42.5355
LeftForeArm  26.6796 -15.2417 -6.42103
LeftHand  -0.160079 11.0076 -1.97249
RightShoulder  -1.00381 -6.12 31.7814
RightArm  18.0279 -0.421954 46.3059
RightForeArm  17.44 10.4312 7.72986
RightHand  -0.0828736 3.67848 -1.31652
LeftUpLeg  2.86527 7.31272 2.5841
LeftLeg  2.88498 13.7894 0.548636
LeftFoot  -4.12204 0.109629 -1.36421
LeftToes  1.47335e-010 -1.29615e-010 3.08757e-011
20
root  73.3037 39.4671 -11.6907 -7.20818 -85.7145 6.60417
RightUpLeg  -2.02812 -7.25155 -4.71387
RightLeg  4.30336 12.2326 -0.50098
RightFoot  -1.77299 -0.209738 2.3668
RightToes  -1.16417e-010 0 -3.6325e-017
Spine  -9.83416 1.69571 2.35462
Spine1  13.1193 2.00754 -1.84404
HEad  -11.4439 -11.2927 2.59914
LeftShoulder1  -0.509201 4.84174 -31.9161
LeftArm  -0.45923 9.79143 -42.6105
LeftForeArm  26.9789 -15.1231 -6.4237
LeftHand  -0.159013 10.8478 -2.02611
RightShoulder  -0.992041 -6.08947 31.7756
RightArm  18.2717 -0.386908 46.3326
RightForeArm  17.036 10.5534 7.75212
RightHand  -0.0947511 3.53856 -1.48246
LeftUpLeg  3.78677 7.57124 2.79818
LeftLeg  2.3168 13.6884 0.252916
LeftFoot  -3.96556 0.106168 -1.31041
LeftToes  1.47335e-010 -1.29615e-010 3.08757e-011
21
root  73.3216 39.4676 -11.6985 -7.57168 -85.689 6.82816
RightUpLeg  -1.84951 -7.27834 -4.74787
RightLeg  4.19007 12.2299 -0.518424
RightFoot  -1.75174 -0.221361 2.52643
RightToes  -1.16417e-010 0 -3.6325e-017
Spine  -9.64084 1.57324 2.45835
Spine1  13.1173 1.95688 -2.13426
HEad  -11.5823 -10.9395 2.56876
LeftShoulder1  -0.520941 4.87638 -31.8088
LeftArm  -0.516331 9.86255 -42.6012
LeftForeArm  26.8628 -15.1719 -6.38724
LeftHand  -0.156436 10.8588 -1.97068
RightShoulder  -0.987487 -6.07422 31.8232
RightArm  18.1067 -0.193363 46.5094
RightForeArm  16.9454 10.2316 7.85141
RightHand  -0.120165 3.57918 -1.80759
LeftUpLeg  3.96713 7.63379 2.82677
LeftLeg  2.20235 13.6181 0.182699
LeftFoot  -3.94402 0.0992734 -1.20324
LeftToes  1.47335e-010 -1.29615e-010 3.08757e-011
22
root  73.3329 39.4733 -11.7226 -7.33283 -85.7179 6.43522
RightUpLeg  -1.69486 -7.206 -4.66487
RightLeg  4.16179 12.1788 -0.565219
RightFoot  -1.72102 -0.218595 2.46317
RightToes  -1.16417e-010 0 -3.6325e-017
Spine  -9.40975 1.54757 2.32085
Spine1  13.0343 1.91109 -2.01803
HEad  -11.6284 -10.5298 2.27442
LeftShoulder1  -0.511523 4.85144 -31.8133
LeftArm  -0.567176 9.86638 -42.5606
LeftForeArm  26.9085 -15.1028 -6.41247
LeftHand  -0.153466 10.6106 -2.02911
RightShoulder  -0.995269 -6.09252 31.8534
RightArm  18.1448 -0.150153 46.4815
RightForeArm  16.8758 10.1935 7.87979
RightHand  -0.124211 3.70333 -1.84337
LeftUpLeg  4.14261 7.73843 2.97554
LeftLeg  2.16372 13.416 0.112452
LeftFoot  -3.89764 0.101067 -1.23111
LeftToes  1.47335e-010 -1.29615e-010 3.08757e-011
23
root  73.3323 39.473 -11.7497 -7.53181 -85.6679 6.43876
RightUpLeg  -1.43732 -7.1628 -4.63332
RightLeg  4.0863 12.1273 -0.615629
RightFoot  -1.74884 -0.222121 2.49841
RightToes  -1.16417e-010 0 -3.6325e-017
Spine  -9.2914 1.43125 2.21792
Spine1  13.0817 1.80694 -2.04427
HEad  -11.7465 -10.1818 2.17075
LeftShoulder1  -0.514836 4.85748 -31.8871
LeftArm  -0.217781 9.87496 -42.3203
LeftForeArm  26.2982 -15.218 -6.4273
LeftHand  -0.140523 10.979 -1.59559
RightShoulder  -1.01768 -6.13831 32.0404
RightArm  18.1129 0.181128 46.4738
RightForeArm  17.16 9.78887 8.02072
RightHand  -0.119323 3.49542 -1.81195
LeftUpLeg  4.29001 7.80024 3.0567
LeftLeg  2.29822 13.3177 0.138675
LeftFoot  -3.9052 0.0910132 -1.07485
LeftToes  1.47335e-010 -1.29615e-010 3.08757e-011
24
root  73.3101 39.4779 -11.7668 -5.24165 -85.2857 3.884
RightUpLeg  -0.912621 -7.16455 -4.51315
RightLeg  3.84271 11.7373 -0.631636
RightFoot  -1.71302 -0.214992 2.36976
RightToes  -1.16417e-010 0 -3.6325e-017
Spine  -9.47261 1.25284 2.35573
Spine1  13.6378 1.63577 -2.10631
HEad  -11.9231 -10.0456 2.08269
LeftShoulder1  -0.488805 4.79662 -31.6686
LeftArm  -0.309635 9.76719 -42.4997
LeftForeArm  26.4859 -15.0689 -6.49197
LeftHand  -0.120507 10.9725 -1.20482
RightShoulder  -1.02457 -6.16485 31.9191
RightArm  17.4907 0.360523 46.7599
RightForeArm  17.3883 9.32727 8.02852
RightHand  -0.129254 4.34106 -1.82233
LeftUpLeg  4.56986 7.97902 3.37822
LeftLeg  2.28975 12.7897 0.0717957
LeftFoot  -4.02523 0.0966643 -1.16268
LeftToes  1.47335e-010 -1.29615e-010 3.08757e-011
25
root  73.3816 39.4719 -11.7748 -8.1449 -85.8997 7.08862
RightUpLeg  -1.69195 -7.11544 -4.58019
RightLeg  4.27746 12.2549 -0.608023
RightFoot  -1.71889 -0.215923 2.36811
RightToes  -1.16417e-010 0 -3.6325e-017
Spine  -9.14103 1.52054 2.411
Spine1  13.0072 1.98261 -2.35303
HEad  -11.7073 -9.89266 2.0784
LeftShoulder1  -0.474053 4.7552 -31.7403
LeftArm  -0.345933 9.80719 -42.3318
LeftForeArm  26.5827 -15.0043 -6.51337
LeftHand  -0.134608 10.7782 -1.55569
RightShoulder  -1.01477 -6.1305 32.0424
RightArm  17.8001 0.282124 46.5765
RightForeArm  17.2313 9.51412 8.05158
RightHand  -0.144871 4.11609 -2.04051
LeftUpLeg  4.24169 7.8651 3.08195
LeftLeg  2.247 13.5529 0.0452162
LeftFoot  -3.95999 0.098837 -1.19646
LeftToes  1.47335e-010 -1.29615e-010 3.08757e-011
26
root  73.3744 39.4702 -11.7787 -5.50094 -85.7597 4.36886
RightUpLeg  -1.45939 -7.02449 -4.39401
RightLeg  4.03547 12.0031 -0.638278
RightFoot  -1.62778 -0.218921 2.401
RightToes  -1.16417e-010 0 -3.6325e-017
Spine  -9.11013 1.39987 2.72496
Spine1  12.9946 1.88379 -2.58016
HEad  -11.7195 -9.85193 2.06221
LeftShoulder1  -0.478784 4.76903 -31.7002
LeftArm  -0.200837 9.91926 -42.2406
LeftForeArm  26.4208 -15.0929 -6.4946
LeftHand  -0.14267 10.9342 -1.65796
RightShoulder  -1.0175 -6.13051 32.1447
RightArm  18.0759 0.256863 46.4801
RightForeArm  17.0412 9.572 8.11137
RightHand  -0.16457 4.26247 -2.2575
LeftUpLeg  4.23936 7.99795 3.33487
LeftLeg  2.38339 13.2566 0.0599707
LeftFoot  -4.11486 0.100936 -1.22908
LeftToes  1.47335e-010 -1.29615e-010 3.08757e-011
27
root  73.3642 39.4763 -11.7709 -3.90579 -85.3218 2.5812
RightUpLeg  -0.980407 -7.16264 -4.42652
RightLeg  3.70508 11.7188 -0.568943
RightFoot  -1.56003 -0.221525 2.43078
RightToes  -1.16417e-010 0 -3.6325e-017
Spine  -9.10512 1.19176 2.77598
Spine1  13.2327 1.64937 -2.52957
HEad  -11.7376 -9.97148 2.05565
LeftShoulder1  -0.477227 4.7638 -31.7339
LeftArm  -0.252137 9.87577 -42.2422
LeftForeArm  26.6486 -15.0487 -6.50328
LeftHand  -0.147785 10.7842 -1.82745
RightShoulder  -1.01456 -6.12713 32.083
RightArm  18.4646 0.0726617 46.3496
RightForeArm  16.5928 9.94406 8.07032
RightHand  -0.160495 4.13811 -2.22979
LeftUpLeg  4.35181 8.02139 3.4633
LeftLeg  2.46695 12.7787 0.115635
LeftFoot  -4.10403 0.0883898 -1.03407
LeftToes  1.47335e-010 -1.29615e-010 3.08757e-011
